# xmcd
# 
# Track frame offsets:
#     150
#     11547
#     29240
#     47807
#     66032
#     83595
#     98165
#     117157
#     133567
#     151232
#     165030
#     177892
#     197887
#     213907
# 
# Disc length: 3041
# 
# Revision: 3
# Processed by: cddbd v1.5.2PL0 Copyright (c) Steve Scherf et al.
# Submitted via: fre:ac v1.1beta1pre3
# 
DISCID=ae0bdf0e
DTITLE=John Michael Montgomery - Greatest Hits
DYEAR=2001
DGENRE=Country
TTITLE0=Sold ( The Grundy Country Auction Incident )
TTITLE1=If You've Got Love
TTITLE2=Rope The Moon
TTITLE3=I Love The Way You Love Me
TTITLE4=Friends
TTITLE5=Cowboy Love
TTITLE6=I Miss You A Little
TTITLE7=Beer And Bones
TTITLE8=I Can Love You Like That
TTITLE9=No Man's Land
TTITLE10=Be My Baby Tonight
TTITLE11=I Swear
TTITLE12=Angel In My Eyes
TTITLE13=Life's A Dance
EXTD=
EXTT0=
EXTT1=
EXTT2=
EXTT3=
EXTT4=
EXTT5=
EXTT6=
EXTT7=
EXTT8=
EXTT9=
EXTT10=
EXTT11=
EXTT12=
EXTT13=
PLAYORDER=
